Coordinates
version=1
nRows=24
nColumns=38
inDegrees=no

Units are S.I. units (second, meters, Newtons, ...)
If the header above contains a line with 'inDegrees', this indicates whether rotational values are in degrees (yes) or radians (no).

endheader
time	pelvis_tilt	pelvis_list	pelvis_rotation	pelvis_tx	pelvis_ty	pelvis_tz	hip_flexion_r	hip_adduction_r	hip_rotation_r	knee_angle_r	ankle_angle_r	subtalar_angle_r	mtp_angle_r	hip_flexion_l	hip_adduction_l	hip_rotation_l	knee_angle_l	ankle_angle_l	subtalar_angle_l	mtp_angle_l	lumbar_extension	lumbar_bending	lumbar_rotation	arm_flex_r	arm_add_r	arm_rot_r	elbow_flex_r	pro_sup_r	wrist_flex_r	wrist_dev_r	arm_flex_l	arm_add_l	arm_rot_l	elbow_flex_l	pro_sup_l	wrist_flex_l	wrist_dev_l
15	0.478337	1.45779	1.24494	0.635712	0.355486	1.04143	0.387376	-0.105262	-0.23582	0.557746	-0.27521	0	0	0.294075	-0.269359	-0.273873	0.449866	-0.228177	0	0	-0.402046	-0.00479311	0.103954	0.650732	-0.7063	0.569834	1.17349	0.442903	0	0	0.694501	-0.389156	0.41504	1.12091	0.689446	0	0
15.01	0.470067	1.45318	1.2533	0.636039	0.353646	1.03932	0.402178	-0.108125	-0.236495	0.572373	-0.272385	0	0	0.310034	-0.274408	-0.275389	0.467143	-0.223381	0	0	-0.410163	-0.00531613	0.102603	0.656727	-0.703937	0.567064	1.17364	0.44783	0	0	0.699146	-0.389305	0.409585	1.12414	0.6952	0	0
15.02	0.466569	1.45024	1.2577	0.636292	0.351802	1.03731	0.414116	-0.11116	-0.239042	0.58536	-0.272503	0	0	0.324079	-0.279051	-0.27573	0.48338	-0.22227	0	0	-0.419575	-0.0056326	0.102343	0.662077	-0.703788	0.565016	1.17452	0.445121	0	0	0.707184	-0.388518	0.409501	1.12412	0.693802	0	0
15.03	0.456996	1.44546	1.26824	0.636617	0.349998	1.03494	0.428387	-0.114263	-0.241539	0.598869	-0.269258	0	0	0.341519	-0.284348	-0.277193	0.502575	-0.217632	0	0	-0.426916	-0.00615	0.100255	0.668234	-0.701056	0.563713	1.17415	0.453163	0	0	0.712039	-0.388532	0.404365	1.12649	0.699623	0	0
15.04	0.447548	1.43973	1.27828	0.637085	0.348289	1.03233	0.443938	-0.116769	-0.243656	0.612865	-0.265717	0	0	0.360302	-0.290707	-0.27991	0.52315	-0.212782	0	0	-0.432916	-0.0067452	0.0985104	0.673126	-0.697527	0.559841	1.17345	0.45862	0	0	0.716493	-0.388924	0.399508	1.12904	0.703834	0	0
15.05	0.438901	1.43409	1.2876	0.637572	0.346632	1.02966	0.459989	-0.119638	-0.246267	0.628118	-0.262155	0	0	0.379033	-0.297179	-0.283012	0.544114	-0.207817	0	0	-0.438978	-0.00742997	0.0969153	0.677203	-0.693863	0.553996	1.17273	0.460311	0	0	0.720926	-0.388946	0.394445	1.13144	0.708012	0	0
15.06	0.430335	1.42907	1.29722	0.637974	0.34495	1.02703	0.475381	-0.12299	-0.248318	0.642885	-0.25901	0	0	0.397258	-0.302989	-0.285557	0.565039	-0.202782	0	0	-0.445728	-0.00821955	0.0951474	0.681759	-0.690533	0.549466	1.17203	0.463783	0	0	0.725859	-0.388718	0.389785	1.13339	0.713928	0	0
15.07	0.418399	1.42274	1.31026	0.638328	0.343221	1.02416	0.492843	-0.126565	-0.24861	0.658315	-0.253391	0	0	0.417503	-0.308354	-0.287824	0.586965	-0.194695	0	0	-0.451425	-0.00918463	0.0922914	0.68654	-0.68569	0.544609	1.17092	0.478015	0	0	0.728823	-0.38853	0.381264	1.13709	0.726649	0	0
15.08	0.412321	1.41852	1.31795	0.638537	0.341386	1.0215	0.507573	-0.130176	-0.248964	0.672889	-0.250763	0	0	0.434903	-0.312886	-0.288383	0.606843	-0.189943	0	0	-0.459711	-0.00953649	0.090319	0.691615	-0.683127	0.53926	1.17085	0.481018	0	0	0.734768	-0.388102	0.377147	1.13915	0.731124	0	0
15.09	0.408368	1.41477	1.32393	0.638582	0.339419	1.01882	0.521864	-0.134095	-0.249562	0.687739	-0.248209	0	0	0.452143	-0.316975	-0.287734	0.626662	-0.18528	0	0	-0.468777	-0.00931002	0.0881414	0.697865	-0.681139	0.53541	1.17075	0.485685	0	0	0.741315	-0.387317	0.373129	1.14094	0.734526	0	0
15.1	0.406984	1.41195	1.32769	0.638518	0.337338	1.01612	0.534889	-0.138471	-0.251007	0.702389	-0.246345	0	0	0.468713	-0.320902	-0.286251	0.646506	-0.181482	0	0	-0.479025	-0.00866182	0.0861723	0.705204	-0.680126	0.533296	1.17081	0.492203	0	0	0.748973	-0.385946	0.369826	1.14199	0.73727	0	0
15.11	0.401591	1.40739	1.33416	0.638694	0.335303	1.01304	0.550569	-0.142421	-0.251126	0.718338	-0.24089	0	0	0.487221	-0.325917	-0.286751	0.667378	-0.175627	0	0	-0.487393	-0.008662	0.0841491	0.713195	-0.67836	0.531504	1.17087	0.492156	0	0	0.754411	-0.385217	0.363284	1.14485	0.745184	0	0
15.12	0.396922	1.40352	1.33916	0.639053	0.333341	1.00992	0.565222	-0.146133	-0.251689	0.73411	-0.236317	0	0	0.504448	-0.33169	-0.28855	0.687788	-0.171342	0	0	-0.49624	-0.00929462	0.0836178	0.720201	-0.677103	0.528669	1.17144	0.494585	0	0	0.761311	-0.384143	0.358914	1.1466	0.749601	0	0
15.13	0.391787	1.39969	1.34436	0.639418	0.331368	1.00665	0.579661	-0.150181	-0.253236	0.749833	-0.231288	0	0	0.521734	-0.337764	-0.290736	0.708606	-0.166979	0	0	-0.504972	-0.0100824	0.0831835	0.72731	-0.675829	0.525023	1.17194	0.494443	0	0	0.768262	-0.383069	0.354459	1.14846	0.753274	0	0
15.14	0.388042	1.39589	1.34816	0.639752	0.32938	1.00321	0.593933	-0.154287	-0.255892	0.765583	-0.226075	0	0	0.539353	-0.344492	-0.293038	0.730288	-0.16248	0	0	-0.513713	-0.0104786	0.0827999	0.735093	-0.674771	0.522613	1.17259	0.497525	0	0	0.775122	-0.381957	0.349773	1.1502	0.757707	0	0
15.15	0.384892	1.39193	1.35127	0.640103	0.327429	0.99964	0.608414	-0.15842	-0.258949	0.781427	-0.220988	0	0	0.557049	-0.351649	-0.295488	0.752198	-0.157828	0	0	-0.522094	-0.010824	0.0825146	0.743809	-0.673758	0.522311	1.17266	0.503405	0	0	0.781889	-0.380686	0.344921	1.15145	0.763339	0	0
15.16	0.381735	1.38793	1.35436	0.640477	0.325489	0.99599	0.623042	-0.16252	-0.261775	0.797325	-0.215891	0	0	0.574696	-0.358854	-0.297659	0.774033	-0.153122	0	0	-0.530409	-0.0112712	0.0822616	0.752465	-0.67265	0.521525	1.17264	0.507828	0	0	0.78891	-0.379457	0.340321	1.15257	0.768389	0	0
15.17	0.378241	1.38381	1.35783	0.640844	0.323542	0.992264	0.638089	-0.166682	-0.264128	0.813529	-0.210954	0	0	0.592253	-0.365798	-0.299174	0.795303	-0.148349	0	0	-0.538706	-0.0117659	0.0820369	0.760916	-0.671421	0.519326	1.17272	0.509962	0	0	0.796147	-0.377963	0.335511	1.15367	0.773046	0	0
15.18	0.377199	1.38118	1.35901	0.641197	0.321571	0.988637	0.651567	-0.17085	-0.2662	0.829324	-0.209924	0	0	0.607914	-0.372869	-0.300695	0.816005	-0.145679	0	0	-0.548525	-0.0120119	0.0824208	0.770268	-0.671501	0.518892	1.17318	0.507392	0	0	0.805365	-0.376596	0.333802	1.15363	0.772062	0	0
15.19	0.372361	1.37615	1.36371	0.641582	0.319582	0.984572	0.668905	-0.17492	-0.266268	0.846532	-0.205598	0	0	0.626571	-0.380071	-0.30243	0.837543	-0.140727	0	0	-0.555337	-0.0127774	0.0822853	0.779199	-0.670132	0.518362	1.17273	0.511711	0	0	0.813126	-0.375104	0.329818	1.15401	0.776284	0	0
15.2	0.366843	1.37033	1.36911	0.641967	0.317558	0.980306	0.687568	-0.178732	-0.265331	0.86408	-0.201389	0	0	0.64625	-0.38728	-0.304066	0.859207	-0.135993	0	0	-0.56111	-0.0136222	0.0820807	0.787675	-0.668622	0.516509	1.17224	0.513874	0	0	0.820778	-0.373532	0.325664	1.15428	0.780227	0	0
15.21	0.36139	1.36403	1.37458	0.642358	0.315525	0.975923	0.706573	-0.182189	-0.264203	0.881505	-0.196791	0	0	0.666717	-0.394455	-0.305383	0.881103	-0.131408	0	0	-0.566281	-0.0145693	0.0818294	0.795972	-0.667116	0.513844	1.17158	0.513643	0	0	0.828572	-0.371843	0.321615	1.15437	0.784258	0	0
15.22	0.356182	1.35754	1.37983	0.642752	0.313497	0.9715	0.725372	-0.185326	-0.263086	0.898738	-0.19147	0	0	0.687587	-0.401497	-0.306302	0.903038	-0.12726	0	0	-0.57137	-0.0155106	0.0816035	0.804511	-0.665829	0.512065	1.17125	0.515182	0	0	0.836599	-0.370575	0.318304	1.15459	0.788303	0	0
15.23	0.351171	1.35128	1.38493	0.643107	0.311522	0.967086	0.743696	-0.189102	-0.262117	0.915736	-0.18629	0	0	0.708073	-0.408052	-0.306519	0.92432	-0.12346	0	0	-0.576806	-0.0163497	0.081304	0.812898	-0.664396	0.510043	1.17133	0.518059	0	0	0.844544	-0.369084	0.314465	1.15486	0.792436	0	0
